#!OML:ASF H:\Terrain\Patient Classification 1\Walking\liu\liu.ASF
:FULLY-SPECIFIED
:DEGREES
79
root 8.71976 16.0759 -22.7735 8.60812 3.97984 4.76622
lowerback -2.61045 -3.65504 -7.37218
upperback 0.333077 -4.66447 1.43157
thorax 2.52037 -2.44045 5.36518
lowerneck -22.9195 -3.12851 -12.5815
upperneck 16.1419 -3.12243 13.8122
head 9.28026 -0.724386 6.5165
rclavicle -5.78463e-014 1.47101e-014
rhumerus -50.939 7.09041 -78.8136
rradius 24.7896
rwrist -11.1435
rhand -31.537 -17.9809
rfingers 7.12502
rthumb -4.80163 -47.9064
lclavicle -5.78463e-014 1.47101e-014
lhumerus -15.6775 -30.6073 87.3207
lradius 38.8262
lwrist 15.2303
lhand -16.9279 -28.1178
lfingers 7.12502
lthumb 9.30489 1.65686
rfemur -44.6271 2.57222 14.2226
rtibia 33.0145
rfoot -23.6592 -9.90503
rtoes -16.2617
lfemur 8.9456 -2.10917 -28.9449
ltibia 1.09021
lfoot -15.6365 4.67156
ltoes -6.00329
80
root 8.71763 16.0505 -22.541 8.70129 4.41012 5.20186
lowerback -2.5939 -3.90722 -7.73396
upperback 0.258438 -4.99126 1.37002
thorax 2.50846 -2.60509 5.48284
lowerneck -22.8444 -3.02235 -12.4037
upperneck 16.1796 -2.99471 13.5771
head 9.25263 -0.680993 6.41693
rclavicle 3.27995e-014 1.15295e-014
rhumerus -52.9518 7.416 -78.4643
rradius 26.0959
rwrist -11.114
rhand -30.6198 -16.0823
rfingers 7.12502
rthumb -3.91603 -46.0261
lclavicle 3.27995e-014 1.15295e-014
lhumerus -14.2637 -30.9415 86.546
lradius 39.2509
lwrist 15.2756
lhand -16.5736 -27.9391
lfingers 7.12502
lthumb 9.64674 1.82003
rfemur -45.4302 4.71743 11.9102
rtibia 31.5594
rfoot -25.285 -10.7748
rtoes -15.2411
lfemur 10.3338 -2.17641 -29.2444
ltibia 2.8625e-014
lfoot -15.7213 4.3373
ltoes -5.41801
81
root 8.71247 16.0128 -22.3091 8.93897 4.28052 5.71384
lowerback -2.79686 -4.02232 -8.30506
upperback 0.210208 -5.10788 1.28672
thorax 2.63382 -2.67316 5.69297
lowerneck -22.8157 -2.94378 -12.2446
upperneck 16.2046 -2.9036 13.3921
head 9.23627 -0.649062 6.33434
rclavicle 3.56818e-014 -1.31198e-014
rhumerus -53.9921 6.42587 -76.8056
rradius 26.5767
rwrist -10.2561
rhand -29.0298 -16.2252
rfingers 7.12502
rthumb -2.38049 -46.1917
lclavicle 3.56818e-014 -1.31198e-014
lhumerus -12.7011 -31.1202 85.6389
lradius 39.4612
lwrist 15.0802
lhand -16.5004 -28.2302
lfingers 7.12502
lthumb 9.71735 1.5256
rfemur -46.6594 7.46105 9.16932
rtibia 30.3219
rfoot -27.0903 -11.8509
rtoes -13.9302
lfemur 11.0004 -1.73621 -29.6732
ltibia 3.49861e-014
lfoot -16.3694 3.90374
ltoes -4.86951
82
root 8.70545 15.9563 -22.0754 9.15427 4.20418 6.05529
lowerback -3.09636 -4.17185 -8.74339
upperback 0.248791 -5.2636 1.32665
thorax 2.91273 -2.77013 5.9426
lowerneck -22.8372 -2.86338 -12.3881
upperneck 16.1885 -2.74399 13.4117
head 9.21309 -0.580999 6.38878
rclavicle -2.10712e-014 -7.15625e-015
rhumerus -54.4244 5.56461 -74.9514
rradius 26.1614
rwrist -9.83014
rhand -29.7562 -19.2012
rfingers 7.12502
rthumb -3.08204 -49.1586
lclavicle -2.10712e-014 -7.15625e-015
lhumerus -10.9748 -31.1591 84.7065
lradius 39.581
lwrist 14.9124
lhand -16.6728 -28.5954
lfingers 7.12502
lthumb 9.55106 1.1681
rfemur -48.0175 10.0715 6.52737
rtibia 29.3757
rfoot -28.4498 -13.7554
rtoes -15.8237
lfemur 11.6876 -1.32793 -29.8958
ltibia -1.90833e-014
lfoot -16.9783 3.37778
ltoes -3.40617
83
root 8.70123 15.9056 -21.8354 9.31904 4.41848 6.13687
lowerback -3.23696 -4.35102 -8.76307
upperback 0.189935 -5.49303 1.40722
thorax 2.97938 -2.88649 6.00926
lowerneck -22.7586 -2.79968 -12.6049
upperneck 16.152 -2.63011 13.6003
head 9.17606 -0.523756 6.50967
rclavicle 5.85421e-014 1.98785e-015
rhumerus -55.0843 5.41343 -73.7928
rradius 25.371
rwrist -10.2649
rhand -30.9987 -20.9623
rfingers 7.12502
rthumb -4.28186 -50.899
lclavicle 5.85421e-014 1.98785e-015
lhumerus -9.50666 -31.2112 83.9541
lradius 39.7253
lwrist 14.8445
lhand -16.8587 -28.8129
lfingers 7.12502
lthumb 9.37165 0.958795
rfemur -49.2154 12.1867 4.31232
rtibia 28.7268
rfoot -27.446 -15.4266
rtoes -18.4422
lfemur 12.4527 -1.1587 -29.82
ltibia -1.59028e-014
lfoot -17.557 3.13925
ltoes -3.09447
84
root 8.69902 15.8639 -21.5993 9.48078 4.76278 6.40558
lowerback -3.2426 -4.52394 -8.89284
upperback 0.16832 -5.71702 1.34326
thorax 3.00476 -2.99953 5.99379
lowerneck -22.6964 -2.74073 -12.5382
upperneck 15.886 -2.58761 13.749
head 9.0699 -0.484621 6.54734
rclavicle 5.03919e-014 2.18663e-014
rhumerus -55.6794 5.24366 -73.0149
rradius 24.6602
rwrist -10.7248
rhand -31.4619 -21.9016
rfingers 7.12502
rthumb -4.72913 -51.8288
lclavicle 5.03919e-014 2.18663e-014
lhumerus -8.00039 -31.1389 83.0681
lradius 39.903
lwrist 14.4915
lhand -16.6322 -29.0552
lfingers 7.12502
lthumb 9.59018 0.706569
rfemur -50.2354 13.7125 2.07243
rtibia 28.2472
rfoot -27.3345 -16.6733
rtoes -19.6438
lfemur 13.1875 -1.13673 -29.9669
ltibia 1.27222e-014
lfoot -17.9528 3.21124
ltoes -5.54213
85
root 8.69615 15.8186 -21.3727 9.70589 5.27507 6.80762
lowerback -3.30407 -4.78835 -9.19808
upperback 0.243053 -6.04729 1.29767
thorax 3.20252 -3.17927 6.07415
lowerneck -22.7375 -2.66856 -12.4708
upperneck 15.5409 -2.48662 13.8017
head 8.94463 -0.42518 6.55578
rclavicle -4.17448e-015 2.42517e-014
rhumerus -56.1079 4.89621 -72.0743
rradius 24.1888
rwrist -10.6739
rhand -31.9799 -21.4592
rfingers 7.12502
rthumb -5.22936 -51.3747
lclavicle -4.17448e-015 2.42517e-014
lhumerus -6.31787 -30.8624 82.1554
lradius 40.0524
lwrist 13.9622
lhand -16.5403 -29.0909
lfingers 7.12502
lthumb 9.67889 0.666683
rfemur -51.1085 14.4027 0.119922
rtibia 27.9086
rfoot -28.067 -17.08
rtoes -19.3572
lfemur 13.8237 -1.31054 -30.2079
ltibia 1.90833e-014
lfoot -18.1551 3.11289
ltoes -7.50468
86
root 8.69417 15.7622 -21.1434 9.85553 5.73033 6.99692
lowerback -3.31043 -5.01872 -9.22331
upperback 0.267704 -6.35197 1.29646
thorax 3.28871 -3.33596 6.05373
lowerneck -22.9062 -2.66763 -12.4477
upperneck 15.5704 -2.47622 13.8009
head 8.98245 -0.413784 6.55705
rclavicle 1.6201e-014 -2.78299e-015
rhumerus -56.6205 4.23975 -70.6784
rradius 23.6567
rwrist -9.96912
rhand -32.2598 -21.3762
rfingers 7.12502
rthumb -5.49961 -51.2848
lclavicle 1.6201e-014 -2.78299e-015
lhumerus -4.88568 -30.6683 81.4293
lradius 40.165
lwrist 13.6568
lhand -16.9243 -28.7252
lfingers 7.12502
lthumb 9.30839 1.04928
rfemur -51.5989 13.8921 -0.424559
rtibia 27.7489
rfoot -28.7473 -16.0438
rtoes -17.2128
lfemur 14.5751 -1.39262 -30.1962
ltibia -3.49861e-014
lfoot -18.3632 2.83076
ltoes -7.12567
87
root 8.69091 15.6998 -20.9081 9.85085 5.88202 7.1117
lowerback -3.22219 -5.09755 -9.16557
upperback 0.310811 -6.46517 1.24864
thorax 3.29219 -3.39241 5.96552
lowerneck -22.8656 -2.64997 -12.3414
upperneck 15.5544 -2.47233 13.7157
head 8.9665 -0.415614 6.50633
rclavicle 7.78242e-014 -2.18663e-014
rhumerus -57.058 3.18546 -68.82
rradius 23.1943
rwrist -8.33898
rhand -30.3502 -23.5002
rfingers 7.12502
rthumb -3.65562 -53.4486
lclavicle 7.78242e-014 -2.18663e-014
lhumerus -3.67936 -30.348 80.8008
lradius 40.2498
lwrist 13.1367
lhand -17.1067 -28.7195
lfingers 7.12502
lthumb 9.1324 1.06274
rfemur -51.7303 12.5197 0.214413
rtibia 27.7133
rfoot -27.971 -14.3699
rtoes -15.7123
lfemur 15.5571 -1.14931 -30.1301
ltibia -1.90833e-014
lfoot -18.5748 2.54929
ltoes -7.26831
88
root 8.68194 15.6417 -20.6695 9.83524 5.79032 7.36937
lowerback -3.15992 -5.13259 -9.35044
upperback 0.338042 -6.50838 1.20524
thorax 3.30944 -3.41826 6.02177
lowerneck -22.6622 -2.54606 -12.229
upperneck 15.3745 -2.32547 13.4917
head 8.84248 -0.369213 6.41397
rclavicle 2.59414e-014 8.74653e-015
rhumerus -57.364 1.95177 -66.5333
rradius 22.7169
rwrist -5.91551
rhand -26.9306 -26.0785
rfingers 7.12502
rthumb -0.353098 -56.058
lclavicle 2.59414e-014 8.74653e-015
lhumerus -2.62388 -29.7055 80.3514
lradius 40.2054
lwrist 12.4237
lhand -17.0086 -29.1313
lfingers 7.12502
lthumb 9.22703 0.646815
rfemur -51.7903 10.7209 1.26198
rtibia 27.8122
rfoot -25.8762 -12.6022
rtoes -15.4899
lfemur 16.5867 -0.698721 -30.2038
ltibia 4.77083e-014
lfoot -18.723 2.23461
ltoes -9.13532
